<?xml version="1.0" encoding="UTF-8"?>
<svg xmlns="http://www.w3.org/2000/svg" version="1.1" viewBox="0 0 24 24">
  <defs>
    <style>
      .cls-1 {
        fill: #fff;
        opacity: .3;
      }

      .cls-2 {
        fill: #fcb357;
      }
    </style>
  </defs>
  <!-- Generator: Adobe Illustrator 28.7.1, SVG Export Plug-In . SVG Version: 1.2.0 Build 142)  -->
  <g>
    <g id="Layer_1">
      <path class="cls-2" d="M-32,18.5c.4,0,.8-.1,1.1-.4.3-.3.4-.6.4-1.1h-3c0,.4.1.8.4,1.1s.6.4,1.1.4ZM-37,16h10v-2h-1v-2.6c0-1-.3-1.9-.8-2.8s-1.3-1.4-2.2-1.6v-.5c0-.3,0-.5-.3-.7-.2-.2-.4-.3-.7-.3s-.5,0-.7.3-.3.4-.3.7v.5c-1,.2-1.7.8-2.2,1.6s-.8,1.8-.8,2.8v2.6h-1v2ZM-34,14v-3c0-.6.2-1,.6-1.4s.9-.6,1.4-.6,1,.2,1.4.6.6.9.6,1.4v3h-4ZM-32,22c-1.4,0-2.7-.3-3.9-.8s-2.3-1.2-3.2-2.1-1.6-2-2.1-3.2-.8-2.5-.8-3.9.3-2.7.8-3.9,1.2-2.3,2.1-3.2,2-1.6,3.2-2.1,2.5-.8,3.9-.8,2.7.3,3.9.8,2.3,1.2,3.2,2.1,1.6,2,2.1,3.2.8,2.5.8,3.9-.3,2.7-.8,3.9-1.2,2.3-2.1,3.2-2,1.6-3.2,2.1-2.5.8-3.9.8ZM-32,20c2.2,0,4.1-.8,5.7-2.3s2.3-3.4,2.3-5.7-.8-4.1-2.3-5.7-3.4-2.3-5.7-2.3-4.1.8-5.7,2.3-2.3,3.4-2.3,5.7.8,4.1,2.3,5.7,3.4,2.3,5.7,2.3Z"/>
      <path class="cls-1" d="M12,18.5c.4,0,.8-.1,1.1-.4.3-.3.4-.6.4-1.1h-3c0,.4.1.8.4,1.1s.6.4,1.1.4ZM7,16h10v-2h-1v-2.6c0-1-.3-1.9-.8-2.8s-1.3-1.4-2.2-1.6v-.5c0-.3,0-.5-.3-.7-.2-.2-.4-.3-.7-.3s-.5,0-.7.3-.3.4-.3.7v.5c-1,.2-1.7.8-2.2,1.6s-.8,1.8-.8,2.8v2.6h-1v2ZM10,14v-3c0-.6.2-1,.6-1.4s.9-.6,1.4-.6,1,.2,1.4.6.6.9.6,1.4v3h-4ZM12,22c-1.4,0-2.7-.3-3.9-.8s-2.3-1.2-3.2-2.1-1.6-2-2.1-3.2-.8-2.5-.8-3.9.3-2.7.8-3.9,1.2-2.3,2.1-3.2,2-1.6,3.2-2.1,2.5-.8,3.9-.8,2.7.3,3.9.8,2.3,1.2,3.2,2.1,1.6,2,2.1,3.2.8,2.5.8,3.9-.3,2.7-.8,3.9-1.2,2.3-2.1,3.2-2,1.6-3.2,2.1-2.5.8-3.9.8ZM12,20c2.2,0,4.1-.8,5.7-2.3s2.3-3.4,2.3-5.7-.8-4.1-2.3-5.7-3.4-2.3-5.7-2.3-4.1.8-5.7,2.3-2.3,3.4-2.3,5.7.8,4.1,2.3,5.7,3.4,2.3,5.7,2.3Z"/>
    </g>
  </g>
</svg>